<?xml version="1.0" encoding="UTF-8" standalone="no"?>
<!-- Created with Inkscape (http://www.inkscape.org/) -->

<svg
   width="256"
   height="256"
   viewBox="0 0 67.73333 67.733335"
   version="1.1"
   id="svg8842"
   inkscape:version="1.1.1 (3bf5ae0d25, 2021-09-20)"
   sodipodi:docname="favicon.svg"
   xmlns:inkscape="http://www.inkscape.org/namespaces/inkscape"
   xmlns:sodipodi="http://sodipodi.sourceforge.net/DTD/sodipodi-0.dtd"
   xmlns="http://www.w3.org/2000/svg"
   xmlns:svg="http://www.w3.org/2000/svg">
  <sodipodi:namedview
     id="namedview8844"
     pagecolor="#505050"
     bordercolor="#ffffff"
     borderopacity="1"
     inkscape:pageshadow="0"
     inkscape:pageopacity="0"
     inkscape:pagecheckerboard="1"
     inkscape:document-units="mm"
     showgrid="false"
     units="px"
     inkscape:zoom="0.72337262"
     inkscape:cx="396.75265"
     inkscape:cy="329.7056"
     inkscape:window-width="1920"
     inkscape:window-height="1001"
     inkscape:window-x="-9"
     inkscape:window-y="-9"
     inkscape:window-maximized="1"
     inkscape:current-layer="layer1" />
  <defs
     id="defs8839" />
  <g
     inkscape:label="Layer 1"
     inkscape:groupmode="layer"
     id="layer1">
    <path
       d="m 58.777674,15.746369 c 0.06376,-0.187224 0.55776,-1.269595 0.653324,-1.998326 0.243132,-1.853375 -10.875804,-4.1702548 -11.11245,-2.312992 l -0.21971,1.734407 10.678836,2.576911"
       style="fill:#c1c3c4;fill-opacity:1;fill-rule:evenodd;stroke:none;stroke-width:0.0650078"
       id="path812" />
    <path
       d="M 9.223498,15.451235 C 9.1623189,15.262078 8.6865416,14.171229 8.6013701,13.441189 8.3855482,11.585216 19.540896,9.437371 19.747616,11.299186 l 0.191775,1.736361 -10.715893,2.415688"
       style="fill:#c1c3c4;fill-opacity:1;fill-rule:evenodd;stroke:none;stroke-width:0.0650078"
       id="path814" />
    <path
       d="m 34.104599,14.903221 c -1.595298,-0.03445 -7.556511,-0.19111 -8.48483,-0.592221 -1.060276,-0.458952 -3.706084,-2.237568 -4.523249,-2.448193 -3.11191,-0.80349 -11.7677093,0.46286 -13.2589847,3.028068 0,0 -4.5303984,9.376076 -6.4877769,19.096702 -1.95608843,9.721272 -1.4724425,16.190843 -0.51226361,18.897775 0.96275871,2.706932 2.05813951,3.821165 3.73470261,3.99733 1.6752362,0.177456 3.6430262,-0.339341 7.3842336,-2.726427 3.740545,-2.38449 5.604329,-5.355984 10.281632,-7.039053 3.412923,-1.227339 8.908677,-1.307295 11.629246,-1.258537 2.72254,-0.0074 8.216343,0.15737 11.610415,1.436012 4.650655,1.754566 6.467616,4.754033 10.173075,7.196367 3.703486,2.44235 5.662818,2.989718 7.342624,2.838245 1.679161,-0.150736 2.791441,-1.2475 3.795809,-3.940132 1.000479,-2.691324 1.580997,-9.152454 -0.224926,-18.903615 C 64.755784,24.735007 60.367112,15.291966 60.367112,15.291966 58.916782,12.704 50.281143,11.305691 47.157511,12.06173 c -0.820389,0.198279 -3.493507,1.935931 -4.560288,2.378632 -0.935467,0.387454 -6.89668,0.453111 -8.492624,0.462859"
       style="fill:#c1c3c4;fill-opacity:1;fill-rule:evenodd;stroke:none;stroke-width:0.0650078"
       id="path816" />
    <path
       d="m 34.104599,14.903221 c -1.595298,-0.03445 -7.556511,-0.19111 -8.48483,-0.592221 -1.060276,-0.458952 -3.706084,-2.237568 -4.523249,-2.448193 -3.11191,-0.80349 -11.7677093,0.46286 -13.2589847,3.028068 0,0 -4.5303984,9.376076 -6.4877769,19.096702 -0.79895737,3.975237 -1.19094531,7.405038 -1.31055766,10.258229 0.07794801,2.552215 0.40368938,4.438095 0.82103341,5.612124 0.96213215,2.706932 2.05751305,3.821165 3.73405765,3.999284 1.6752548,0.175613 3.6436896,-0.341275 7.3848972,-2.728363 3.740544,-2.384489 5.606265,-5.357311 10.281631,-7.039051 3.414213,-1.227359 8.908679,-1.30667 11.629892,-1.26051 2.723184,-0.0056 8.215697,0.158661 11.60975,1.437984 4.650674,1.753258 6.468945,4.754015 10.173076,7.196366 3.705458,2.442978 5.662837,2.989701 7.341998,2.839536 1.679788,-0.152026 2.792085,-1.249453 3.796453,-3.941421 0.434242,-1.168188 0.78919,-3.048872 0.904251,-5.599778 C 67.64088,41.908786 67.302139,38.472461 66.564306,34.485542 64.755784,24.735007 60.367112,15.291966 60.367112,15.291966 58.916782,12.704 50.281143,11.305691 47.157511,12.06173 c -0.820389,0.198279 -3.493507,1.935931 -4.560288,2.378632 -0.935467,0.387454 -6.89668,0.453111 -8.492624,0.462859"
       style="fill:#f4f5f5;fill-opacity:1;fill-rule:evenodd;stroke:none;stroke-width:0.0650078"
       id="path818" />
    <path
       d="m 15.834149,28.683596 c 2.734868,0.02138 4.982201,-2.194024 5.003007,-4.929554 0.02082,-2.737486 -2.190781,-4.983494 -4.928247,-5.004298 -2.735532,-0.02082 -4.984155,2.192053 -5.00496,4.929537 -0.02211,2.734224 2.192715,4.982202 4.9302,5.004315"
       style="fill:#505256;fill-opacity:1;fill-rule:evenodd;stroke:none;stroke-width:0.0650078"
       id="path820" />
    <path
       d="m 15.845205,27.185816 c 1.910574,0.01474 3.480515,-1.532885 3.494815,-3.442831 0.01474,-1.912527 -1.532239,-3.482469 -3.442812,-3.496768 -1.911881,-0.01474 -3.481824,1.53224 -3.496768,3.444121 -0.01474,1.910573 1.532885,3.480514 3.444765,3.495478"
       style="fill:#65686c;fill-opacity:1;fill-rule:evenodd;stroke:none;stroke-width:0.0650078"
       id="path822" />
    <path
       d="m 43.982541,41.485582 c 2.77843,0.02082 5.06085,-2.227175 5.081654,-5.005605 0.02082,-2.777785 -2.224557,-5.059559 -5.004959,-5.081009 -2.776477,-0.02082 -5.06085,2.226511 -5.081009,5.004296 -0.02266,2.777785 2.227819,5.060868 5.004314,5.082318"
       style="fill:#505256;fill-opacity:1;fill-rule:evenodd;stroke:none;stroke-width:0.0650078"
       id="path824" />
    <path
       d="m 43.994242,39.966353 c 1.940481,0.01474 3.537714,-1.557596 3.551369,-3.498077 0.01474,-1.940481 -1.557578,-3.535779 -3.498076,-3.550078 -1.94048,-0.01474 -3.535116,1.556287 -3.550061,3.496767 -0.01474,1.939836 1.556933,3.536424 3.496768,3.551388"
       style="fill:#65686c;fill-opacity:1;fill-rule:evenodd;stroke:none;stroke-width:0.0650078"
       id="path826" />
    <path
       d="m 25.735494,41.371167 c 2.883743,0.02212 5.25067,-2.31102 5.273429,-5.192183 0.02082,-2.882434 -2.310375,-5.249381 -5.193473,-5.271475 -2.881144,-0.02212 -5.248736,2.309729 -5.27083,5.192181 -0.02212,2.879838 2.309729,5.250027 5.190874,5.271477"
       style="fill:#505256;fill-opacity:1;fill-rule:evenodd;stroke:none;stroke-width:0.0650078"
       id="path828" />
    <path
       d="m 25.743288,40.36549 c 2.327935,0.01658 4.24177,-1.866366 4.258669,-4.193655 0.01843,-2.329226 -1.86703,-4.240462 -4.194302,-4.259314 -2.325982,-0.01658 -4.239171,1.86574 -4.256714,4.194964 -0.01843,2.326627 1.867011,4.239817 4.192347,4.258005"
       style="fill:#65686c;fill-opacity:1;fill-rule:evenodd;stroke:none;stroke-width:0.0650078"
       id="path830" />
    <path
       d="m 27.300221,32.196617 c -0.08126,2.357179 -0.01287,2.400079 2.392947,2.353273 0.203476,0.501207 0.313984,1.049239 0.308789,1.621945 -0.0036,0.549321 -0.112402,1.075238 -0.308144,1.554351 -2.448192,-0.08385 -2.49955,-0.04754 -2.450791,2.377985 -0.468701,0.172849 -0.973815,0.265226 -1.499734,0.261319 -0.594173,-0.0056 -1.161683,-0.132678 -1.67461,-0.357528 0.07869,-2.292187 0.01287,-2.386443 -2.237567,-2.345497 -0.183905,-0.483002 -0.28603,-1.006322 -0.282123,-1.555624 0.0036,-0.570126 0.123461,-1.114896 0.332836,-1.610244 2.202462,0.07205 2.28828,-0.02543 2.247315,-2.249286 0.516816,-0.219065 1.084987,-0.338032 1.678516,-0.33479 0.527853,0.0056 1.029061,0.103929 1.492566,0.284096"
       style="fill:#7a7c81;fill-opacity:1;fill-rule:evenodd;stroke:none;stroke-width:0.0650078"
       id="path832" />
    <path
       d="m 52.871705,20.597259 c -1.186394,-0.32049 -2.008736,-1.403506 -2.000297,-2.632818 0.01105,-1.491276 1.233863,-2.695877 2.725139,-2.684821 0.232075,0.0013 0.463505,0.03317 0.685187,0.09361 1.188328,0.321134 2.008735,1.403524 2.000277,2.632817 -0.0056,0.720937 -0.291871,1.397665 -0.808042,1.905378 -0.51617,0.508357 -1.196787,0.78464 -1.917077,0.779443 -0.232075,-0.0013 -0.461552,-0.03317 -0.685187,-0.09361"
       style="fill:#3a3a3c;fill-opacity:1;fill-rule:evenodd;stroke:none;stroke-width:0.0650078"
       id="path834" />
    <path
       d="m 53.557536,20.480908 c 1.37557,0.01105 2.503457,-1.102549 2.513204,-2.476812 0.01287,-1.374261 -1.099286,-2.503457 -2.474837,-2.514496 -1.374925,-0.01105 -2.504766,1.101886 -2.515159,2.476794 -0.0092,1.374262 1.103821,2.504103 2.476792,2.514514"
       style="fill:#65686c;fill-opacity:1;fill-rule:evenodd;stroke:none;stroke-width:0.0650078"
       id="path836" />
    <path
       d="m 47.268038,25.708821 c -1.186394,-0.321134 -2.008754,-1.403505 -2.000295,-2.632816 0.01105,-1.491921 1.235797,-2.696521 2.727073,-2.68482 0.232075,0.0018 0.461552,0.03317 0.683234,0.09306 1.188346,0.321798 2.010688,1.404169 2.002248,2.633481 -0.01287,1.491275 -1.235797,2.696521 -2.727091,2.684819 -0.232075,-0.0018 -0.461552,-0.03316 -0.683234,-0.09287 l -0.0018,-6.64e-4"
       style="fill:#3a3a3c;fill-opacity:1;fill-rule:evenodd;stroke:none;stroke-width:0.0650078"
       id="path838" />
    <path
       d="m 47.95387,25.592471 c 1.375551,0.01105 2.504746,-1.101885 2.515139,-2.47681 0.01105,-1.374262 -1.101221,-2.504102 -2.476791,-2.514495 -1.372971,-0.01105 -2.502793,1.101886 -2.513205,2.476792 -0.0092,1.374261 1.101885,2.504101 2.474857,2.514513"
       style="fill:#65686c;fill-opacity:1;fill-rule:evenodd;stroke:none;stroke-width:0.0650078"
       id="path840" />
    <path
       d="m 52.79044,31.192249 c -1.187683,-0.321798 -2.010689,-1.404169 -2.000277,-2.632172 0.0056,-0.721599 0.293825,-1.397664 0.808041,-1.90604 0.516153,-0.507712 1.196787,-0.784639 1.918387,-0.778778 0.232075,0.0013 0.462197,0.03244 0.685832,0.09361 1.18573,0.320471 2.00809,1.403506 1.998342,2.632154 -0.0056,0.721598 -0.292536,1.398327 -0.808061,1.906039 -0.514862,0.507712 -1.196787,0.783995 -1.917077,0.77878 -0.232075,-0.0018 -0.463505,-0.03391 -0.685187,-0.09361"
       style="fill:#3a3a3c;fill-opacity:1;fill-rule:evenodd;stroke:none;stroke-width:0.0650078"
       id="path842" />
    <path
       d="m 53.476271,31.075235 c 1.376879,0.01105 2.504765,-1.099932 2.515158,-2.475503 0.0092,-1.374924 -1.099932,-2.503455 -2.476792,-2.514512 -1.373616,-0.01105 -2.502812,1.101241 -2.513204,2.47681 -0.01287,1.374262 1.101885,2.502793 2.474838,2.513187"
       style="fill:#65686c;fill-opacity:1;fill-rule:evenodd;stroke:none;stroke-width:0.0650078"
       id="path844" />
    <path
       d="m 58.069084,25.792039 c -1.187703,-0.322442 -2.010045,-1.404812 -2.00225,-2.634125 0.01287,-1.49192 1.235798,-2.695875 2.727092,-2.684175 0.232075,0.0018 0.463505,0.03317 0.685832,0.09287 1.187683,0.321798 2.010043,1.404833 2.000277,2.633481 -0.01287,1.491919 -1.236443,2.695212 -2.727073,2.684173 -0.232075,-0.0018 -0.462196,-0.03242 -0.683878,-0.09232"
       style="fill:#3a3a3c;fill-opacity:1;fill-rule:evenodd;stroke:none;stroke-width:0.0650078"
       id="path846" />
    <path
       d="m 58.754915,25.674381 c 1.375569,0.01105 2.503456,-1.101886 2.515157,-2.476147 0.01105,-1.37428 -1.101239,-2.504102 -2.47681,-2.514514 -1.374905,-0.01105 -2.504746,1.101887 -2.514494,2.476148 -0.01105,1.374925 1.101222,2.504102 2.476147,2.514513"
       style="fill:#65686c;fill-opacity:1;fill-rule:evenodd;stroke:none;stroke-width:0.0650078"
       id="path848" />
    <path
       d="m 29.635306,26.871812 c 0.765143,0.0074 1.396374,-0.613669 1.400926,-1.379457 0.0074,-0.766452 -0.614333,-1.395711 -1.379477,-1.401571 -0.765143,-0.0056 -1.395711,0.613025 -1.400906,1.380767 -0.0074,0.765143 0.614313,1.395066 1.379457,1.400261"
       style="fill:#65686c;fill-opacity:1;fill-rule:evenodd;stroke:none;stroke-width:0.0650078"
       id="path850" />
    <path
       d="m 38.348949,26.979724 c 0.789209,0.0074 1.436675,-0.632521 1.443179,-1.420422 0.0056,-0.789191 -0.632521,-1.437966 -1.421711,-1.443161 -0.787902,-0.0074 -1.435386,0.63252 -1.440582,1.421066 -0.0074,0.787256 0.631231,1.436031 1.419114,1.442517"
       style="fill:#65686c;fill-opacity:1;fill-rule:evenodd;stroke:none;stroke-width:0.0650078"
       id="path852" />
  </g>
</svg>
